# xmcd CD database file
#
# Track frame offsets:
#	150
#	12570
#	24110
#	36861
#	57562
#	70498
#	87447
#	101475
#	116909
#	128779
#	152099
#
# Disc length: 2240 seconds
#
# Revision: 0
# Processed by: cddbd v1.4PL0 Copyright (c) Steve Scherf et al.
# Submitted via: CDex 1.50Beta7
#
DISCID=9408be0b
DTITLE=At Fault - Souled Out
DYEAR=2002
DGENRE=Blues
TTITLE0=Soul Man
TTITLE1=Mr. Pitiful
TTITLE2=My Girl
TTITLE3=Sweet Home Chicago
TTITLE4=Knock on Wood
TTITLE5=That's the Way/Shake Your Booty
TTITLE6=Domino
TTITLE7=Suspicious Minds
TTITLE8=Vehicle
TTITLE9=Mustang Sally
TTITLE10=Saturday in the Park
EXTD=YEAR: 2002
EXTT0=
EXTT1=
EXTT2=
EXTT3=
EXTT4=
EXTT5=
EXTT6=
EXTT7=
EXTT8=
EXTT9=
EXTT10=
PLAYORDER=
